<svg width="46" height="46" viewBox="0 0 46 46" fill="none" xmlns="http://www.w3.org/2000/svg">
<path d="M23 22.0417C21.7292 22.0417 20.5104 21.5368 19.6118 20.6382C18.7132 19.7396 18.2084 18.5208 18.2084 17.25C18.2084 15.9792 18.7132 14.7604 19.6118 13.8618C20.5104 12.9632 21.7292 12.4583 23 12.4583C24.2709 12.4583 25.4897 12.9632 26.3883 13.8618C27.2869 14.7604 27.7917 15.9792 27.7917 17.25C27.7917 17.8793 27.6678 18.5024 27.427 19.0837C27.1862 19.6651 26.8332 20.1933 26.3883 20.6382C25.9433 21.0832 25.4151 21.4361 24.8337 21.6769C24.2524 21.9177 23.6293 22.0417 23 22.0417ZM23 3.83334C19.4417 3.83334 16.0291 5.24688 13.513 7.76299C10.9969 10.2791 9.58337 13.6917 9.58337 17.25C9.58337 27.3125 23 42.1667 23 42.1667C23 42.1667 36.4167 27.3125 36.4167 17.25C36.4167 13.6917 35.0032 10.2791 32.4871 7.76299C29.9709 5.24688 26.5584 3.83334 23 3.83334Z" fill="#5061FF"/>
</svg>
