<svg width="28" height="40" viewBox="0 0 28 40" fill="none" xmlns="http://www.w3.org/2000/svg">
<path d="M14 19.0417C12.7292 19.0417 11.5104 18.5368 10.6118 17.6382C9.71321 16.7396 9.20837 15.5208 9.20837 14.25C9.20837 12.9792 9.71321 11.7604 10.6118 10.8618C11.5104 9.96318 12.7292 9.45834 14 9.45834C15.2709 9.45834 16.4897 9.96318 17.3883 10.8618C18.2869 11.7604 18.7917 12.9792 18.7917 14.25C18.7917 14.8793 18.6678 15.5024 18.427 16.0837C18.1862 16.6651 17.8332 17.1933 17.3883 17.6382C16.9433 18.0832 16.4151 18.4361 15.8337 18.6769C15.2524 18.9177 14.6293 19.0417 14 19.0417ZM14 0.833344C10.4417 0.833344 7.02914 2.24688 4.51303 4.76299C1.99691 7.27911 0.583374 10.6917 0.583374 14.25C0.583374 24.3125 14 39.1667 14 39.1667C14 39.1667 27.4167 24.3125 27.4167 14.25C27.4167 10.6917 26.0032 7.27911 23.4871 4.76299C20.9709 2.24688 17.5584 0.833344 14 0.833344Z" fill="#5061FF"/>
</svg>
