<svg width="39" height="39" viewBox="0 0 39 39" fill="none" xmlns="http://www.w3.org/2000/svg">
<path d="M18.4583 28.875H20.5417V20.5417H28.875V18.4583H20.5417V10.125H18.4583V18.4583H10.125V20.5417H18.4583V28.875ZM19.5063 38.25C16.9146 38.25 14.4771 37.7583 12.1937 36.775C9.91181 35.7903 7.92639 34.4542 6.2375 32.7667C4.54861 31.0806 3.21181 29.0972 2.22708 26.8167C1.24236 24.5361 0.75 22.0993 0.75 19.5063C0.75 16.9146 1.24167 14.4771 2.225 12.1937C3.20972 9.91181 4.54583 7.92639 6.23333 6.2375C7.91944 4.54861 9.90278 3.21181 12.1833 2.22708C14.4639 1.24236 16.9007 0.75 19.4937 0.75C22.0854 0.75 24.5229 1.24167 26.8062 2.225C29.0882 3.20972 31.0736 4.54583 32.7625 6.23333C34.4514 7.91944 35.7882 9.90278 36.7729 12.1833C37.7576 14.4639 38.25 16.9007 38.25 19.4937C38.25 22.0854 37.7583 24.5229 36.775 26.8062C35.7903 29.0882 34.4542 31.0736 32.7667 32.7625C31.0806 34.4514 29.0972 35.7882 26.8167 36.7729C24.5361 37.7576 22.0993 38.25 19.5063 38.25Z" fill="currentColor"/>
</svg>
