<svg width="24" height="24" viewBox="0 0 24 24" fill="none" xmlns="http://www.w3.org/2000/svg">
<path fill-rule="evenodd" clip-rule="evenodd" d="M13.6062 8.76771C13.6062 8.32142 13.9657 7.95963 14.4092 7.95963H14.4173C14.8608 7.95963 15.2203 8.32142 15.2203 8.76771C15.2203 9.214 14.8608 9.57579 14.4173 9.57579H14.4092C13.9657 9.57579 13.6062 9.214 13.6062 8.76771Z" fill="white"/>
<path fill-rule="evenodd" clip-rule="evenodd" d="M4 7.9596C4 5.81934 5.73622 4 7.98484 4H16.0152C18.2638 4 20 5.81934 20 7.9596V16.0404C20 18.1807 18.2638 20 16.0152 20H7.98484C5.73622 20 4 18.1807 4 16.0404V7.9596ZM7.98484 5.45455C6.68543 5.45455 5.54541 6.52953 5.54541 7.9596V16.0404C5.54541 17.4705 6.68543 18.5455 7.98484 18.5455H16.0152C17.3146 18.5455 18.4546 17.4705 18.4546 16.0404V7.9596C18.4546 6.52953 17.3146 5.45455 16.0152 5.45455H7.98484Z" fill="white"/>
<path fill-rule="evenodd" clip-rule="evenodd" d="M7.70413 10.9021C8.29434 10.3306 9.08102 9.92331 9.99236 9.92331C10.9037 9.92331 11.6904 10.3306 12.2806 10.9021L12.2857 10.907L12.3017 10.9229L16.3169 14.9633C16.6038 15.252 16.5959 15.7124 16.2994 15.9917C16.0028 16.271 15.5298 16.2633 15.2429 15.9746L11.2302 11.9367L11.2244 11.931C10.8478 11.5672 10.4225 11.3779 9.99236 11.3779C9.56226 11.3779 9.13693 11.5672 8.76028 11.931L8.75445 11.9368L5.54483 15.1666C5.25794 15.4552 4.78496 15.4629 4.4884 15.1836C4.19184 14.9043 4.18399 14.4439 4.47088 14.1552L7.688 10.9179L7.70413 10.9021Z" fill="white"/>
<path fill-rule="evenodd" clip-rule="evenodd" d="M13.3513 12.5098C13.9403 11.9395 14.7186 11.5395 15.6138 11.5395C16.509 11.5395 17.2873 11.9395 17.8763 12.5098L17.8813 12.5147L17.8973 12.5305L19.5033 14.1467C19.7856 14.4307 19.7856 14.8912 19.5033 15.1752C19.2211 15.4592 18.7635 15.4592 18.4812 15.1752L16.8776 13.5615L16.8717 13.5557C16.4938 13.1907 16.06 12.9941 15.6138 12.9941C15.1676 12.9941 14.7339 13.1907 14.3559 13.5557L14.35 13.5615L13.5495 14.3671C13.2672 14.6511 12.8096 14.6511 12.5274 14.3671C12.2451 14.0831 12.2451 13.6226 12.5274 13.3386L13.3353 12.5256L13.3513 12.5098Z" fill="white"/>
</svg>
