<svg width="24" height="24" viewBox="0 0 24 24" fill="none" xmlns="http://www.w3.org/2000/svg">
<rect width="24" height="24" fill="#202020"/>
<path d="M11.5 21.45V19.988C9.41672 19.7933 7.69672 19.0177 6.34005 17.661C4.98338 16.3043 4.20705 14.584 4.01105 12.5H2.55005V11.5H4.01205C4.20672 9.41667 4.98238 7.69667 6.33905 6.34C7.69572 4.98334 9.41605 4.207 11.5 4.011V2.55H12.5V4.012C14.5834 4.20667 16.3034 4.98234 17.66 6.339C19.0167 7.69567 19.7927 9.416 19.9881 11.5H21.4501V12.5H19.9881C19.7934 14.5833 19.0177 16.3033 17.661 17.66C16.3044 19.0167 14.584 19.793 12.5 19.989V21.451L11.5 21.45ZM12 19C13.9334 19 15.5834 18.3167 16.95 16.95C18.3167 15.5833 19 13.9333 19 12C19 10.0667 18.3167 8.41667 16.95 7.05C15.5834 5.68334 13.9334 5 12 5C10.0667 5 8.41672 5.68334 7.05005 7.05C5.68338 8.41667 5.00005 10.0667 5.00005 12C5.00005 13.9333 5.68338 15.5833 7.05005 16.95C8.41672 18.3167 10.0667 19 12 19ZM12 15C11.1754 15 10.469 14.7063 9.88105 14.119C9.29305 13.5317 8.99938 12.8253 9.00005 12C9.00005 11.1753 9.29372 10.469 9.88105 9.881C10.4684 9.293 11.1747 8.99934 12 9C12.8254 9 13.5317 9.29367 14.119 9.881C14.7064 10.4683 15 11.1747 15 12C15 12.8253 14.7064 13.5317 14.119 14.119C13.5317 14.7063 12.8254 15 12 15Z" fill="white"/>
</svg>
