<svg xmlns="http://www.w3.org/2000/svg" width="10" height="18" viewBox="0 0 10 18" fill="none">
  <path d="M1.82001 8.99999L9.53501 16.715C9.68168 16.863 9.75435 17.0397 9.75301 17.245C9.75101 17.4497 9.67635 17.6257 9.52901 17.773C9.38168 17.9203 9.20535 17.994 9.00001 17.994C8.79468 17.994 8.61835 17.9207 8.47101 17.774L0.830014 10.136C0.66868 9.97399 0.55068 9.79399 0.476014 9.59599C0.401347 9.39666 0.364014 9.19766 0.364014 8.99899C0.364014 8.80033 0.401347 8.60166 0.476014 8.40299C0.55068 8.20433 0.66868 8.02433 0.830014 7.86299L8.47001 0.219993C8.61735 0.0726599 8.79468 -6.69644e-06 9.00201 0.0019933C9.20868 0.0039933 9.38601 0.0786599 9.53401 0.225993C9.68201 0.373327 9.75535 0.54966 9.75401 0.754993C9.75401 0.95966 9.68068 1.13599 9.53401 1.28399L1.82001 8.99999Z" fill="url(#paint0_linear_767_198)"/>
  <defs>
    <linearGradient id="paint0_linear_767_198" x1="0.364014" y1="8.99797" x2="9.75403" y2="8.99797" gradientUnits="userSpaceOnUse">
      <stop stop-color="#E73AFF"/>
      <stop offset="1" stop-color="#A45CFF"/>
    </linearGradient>
  </defs>
</svg>