<svg width="51" height="51" viewBox="0 0 51 51" fill="none" xmlns="http://www.w3.org/2000/svg">
<path d="M24.4583 34.875H26.5417V26.5417H34.875V24.4583H26.5417V16.125H24.4583V24.4583H16.125V26.5417H24.4583V34.875ZM25.5063 44.25C22.9146 44.25 20.4771 43.7583 18.1937 42.775C15.9118 41.7903 13.9264 40.4542 12.2375 38.7667C10.5486 37.0806 9.21181 35.0972 8.22708 32.8167C7.24236 30.5361 6.75 28.0993 6.75 25.5063C6.75 22.9146 7.24167 20.4771 8.225 18.1937C9.20972 15.9118 10.5458 13.9264 12.2333 12.2375C13.9194 10.5486 15.9028 9.21181 18.1833 8.22708C20.4639 7.24236 22.9007 6.75 25.4937 6.75C28.0854 6.75 30.5229 7.24167 32.8062 8.225C35.0882 9.20972 37.0736 10.5458 38.7625 12.2333C40.4514 13.9194 41.7882 15.9028 42.7729 18.1833C43.7576 20.4639 44.25 22.9007 44.25 25.4937C44.25 28.0854 43.7583 30.5229 42.775 32.8062C41.7903 35.0882 40.4542 37.0736 38.7667 38.7625C37.0806 40.4514 35.0972 41.7882 32.8167 42.7729C30.5361 43.7576 28.0993 44.25 25.5063 44.25Z" fill="#FF8F50"/>
</svg>
