<svg width="28" height="28" viewBox="0 0 28 28" fill="none" xmlns="http://www.w3.org/2000/svg">
<path d="M5.83325 22.1667V12.026C5.83325 11.7273 5.90014 11.4446 6.03392 11.1778C6.16692 10.911 6.35125 10.6909 6.58692 10.5175L12.8694 5.76099C13.1976 5.50977 13.5733 5.38416 13.9964 5.38416C14.4188 5.38416 14.7968 5.50977 15.1304 5.76099L21.4129 10.5175C21.6486 10.6909 21.8329 10.911 21.9659 11.1778C22.0997 11.4446 22.1666 11.7273 22.1666 12.026V22.1667C22.1666 22.4793 22.0503 22.7519 21.8178 22.9845C21.5844 23.217 21.3118 23.3333 20.9999 23.3333H17.0508C16.784 23.3333 16.5604 23.2431 16.3799 23.0627C16.1995 22.8822 16.1093 22.6582 16.1093 22.3907V16.8268C16.1093 16.56 16.0186 16.3364 15.8374 16.156C15.657 15.9748 15.4334 15.8842 15.1666 15.8842H12.8333C12.5665 15.8842 12.3429 15.9748 12.1624 16.156C11.9812 16.3364 11.8906 16.56 11.8906 16.8268V22.3918C11.8906 22.6586 11.8004 22.8822 11.6199 23.0627C11.4395 23.2431 11.2159 23.3333 10.9491 23.3333H6.99992C6.68725 23.3333 6.41464 23.217 6.18209 22.9845C5.94953 22.7512 5.83325 22.4785 5.83325 22.1667Z" fill="#888888"/>
</svg>
