<svg width="24" height="24" viewBox="0 0 24 24" fill="none" xmlns="http://www.w3.org/2000/svg">
<path d="M8.81977 12L16.5348 19.715C16.6814 19.863 16.7541 20.0397 16.7528 20.245C16.7508 20.4497 16.6761 20.6257 16.5288 20.773C16.3814 20.9203 16.2051 20.994 15.9998 20.994C15.7944 20.994 15.6181 20.9207 15.4708 20.774L7.82977 13.136C7.66844 12.974 7.55044 12.794 7.47577 12.596C7.4011 12.3967 7.36377 12.1977 7.36377 11.999C7.36377 11.8003 7.4011 11.6017 7.47577 11.403C7.55044 11.2043 7.66844 11.0243 7.82977 10.863L15.4698 3.21999C15.6171 3.07266 15.7944 2.99999 16.0018 3.00199C16.2084 3.00399 16.3858 3.07866 16.5338 3.22599C16.6818 3.37333 16.7551 3.54966 16.7538 3.75499C16.7538 3.95966 16.6804 4.13599 16.5338 4.28399L8.81977 12Z" fill="currentColor"/>
</svg>
