<svg width="46" height="46" viewBox="0 0 46 46" fill="none" xmlns="http://www.w3.org/2000/svg">
<path d="M23.0026 22.0443C21.7318 22.0443 20.513 21.5394 19.6144 20.6408C18.7158 19.7422 18.2109 18.5234 18.2109 17.2526C18.2109 15.9818 18.7158 14.763 19.6144 13.8644C20.513 12.9658 21.7318 12.4609 23.0026 12.4609C24.2734 12.4609 25.4922 12.9658 26.3908 13.8644C27.2894 14.763 27.7943 15.9818 27.7943 17.2526C27.7943 17.8819 27.6703 18.5049 27.4295 19.0863C27.1887 19.6676 26.8358 20.1959 26.3908 20.6408C25.9459 21.0858 25.4176 21.4387 24.8363 21.6795C24.2549 21.9203 23.6319 22.0443 23.0026 22.0443ZM23.0026 3.83594C19.4443 3.83594 16.0317 5.24948 13.5156 7.76559C10.9995 10.2817 9.58594 13.6943 9.58594 17.2526C9.58594 27.3151 23.0026 42.1693 23.0026 42.1693C23.0026 42.1693 36.4193 27.3151 36.4193 17.2526C36.4193 13.6943 35.0057 10.2817 32.4896 7.76559C29.9735 5.24948 26.5609 3.83594 23.0026 3.83594Z" fill="#5061FF"/>
</svg>
