<svg width="24" height="24" viewBox="0 0 24 24" fill="none" xmlns="http://www.w3.org/2000/svg">
<path d="M11.4969 21.4469V19.9849C9.41354 19.7902 7.69354 19.0145 6.33688 17.6579C4.98021 16.3012 4.20388 14.5809 4.00788 12.4969H2.54688V11.4969H4.00888C4.20354 9.41354 4.97921 7.69354 6.33588 6.33688C7.69254 4.98021 9.41287 4.20388 11.4969 4.00788V2.54688H12.4969V4.00888C14.5802 4.20354 16.3002 4.97921 17.6569 6.33588C19.0135 7.69254 19.7895 9.41287 19.9849 11.4969H21.4469V12.4969H19.9849C19.7902 14.5802 19.0145 16.3002 17.6579 17.6569C16.3012 19.0135 14.5809 19.7899 12.4969 19.9859V21.4479L11.4969 21.4469ZM11.9969 18.9969C13.9302 18.9969 15.5802 18.3135 16.9469 16.9469C18.3135 15.5802 18.9969 13.9302 18.9969 11.9969C18.9969 10.0635 18.3135 8.41354 16.9469 7.04688C15.5802 5.68021 13.9302 4.99688 11.9969 4.99688C10.0635 4.99688 8.41354 5.68021 7.04688 7.04688C5.68021 8.41354 4.99688 10.0635 4.99688 11.9969C4.99688 13.9302 5.68021 15.5802 7.04688 16.9469C8.41354 18.3135 10.0635 18.9969 11.9969 18.9969ZM11.9969 14.9969C11.1722 14.9969 10.4659 14.7032 9.87787 14.1159C9.28987 13.5285 8.99621 12.8222 8.99687 11.9969C8.99687 11.1722 9.29054 10.4659 9.87787 9.87787C10.4652 9.28987 11.1715 8.99621 11.9969 8.99687C12.8222 8.99687 13.5285 9.29054 14.1159 9.87787C14.7032 10.4652 14.9969 11.1715 14.9969 11.9969C14.9969 12.8222 14.7032 13.5285 14.1159 14.1159C13.5285 14.7032 12.8222 14.9969 11.9969 14.9969Z" fill="white"/>
</svg>
