<svg width="32" height="32" viewBox="0 0 32 32" fill="none" xmlns="http://www.w3.org/2000/svg">
<path d="M15.3318 28.5984V26.6491C12.554 26.3895 10.2607 25.3553 8.45177 23.5464C6.64288 21.7375 5.60777 19.4438 5.34644 16.6651H3.39844V15.3318H5.34777C5.60733 12.554 6.64155 10.2607 8.45044 8.45177C10.2593 6.64288 12.5531 5.60777 15.3318 5.34644V3.39844H16.6651V5.34777C19.4429 5.60733 21.7362 6.64155 23.5451 8.45044C25.354 10.2593 26.3887 12.5531 26.6491 15.3318H28.5984V16.6651H26.6491C26.3896 19.4429 25.3553 21.7362 23.5464 23.5451C21.7375 25.354 19.4438 26.3891 16.6651 26.6504V28.5998L15.3318 28.5984ZM15.9984 25.3318C18.5762 25.3318 20.7762 24.4207 22.5984 22.5984C24.4207 20.7762 25.3318 18.5762 25.3318 15.9984C25.3318 13.4207 24.4207 11.2207 22.5984 9.39844C20.7762 7.57622 18.5762 6.6651 15.9984 6.6651C13.4207 6.6651 11.2207 7.57622 9.39844 9.39844C7.57622 11.2207 6.6651 13.4207 6.6651 15.9984C6.6651 18.5762 7.57622 20.7762 9.39844 22.5984C11.2207 24.4207 13.4207 25.3318 15.9984 25.3318ZM15.9984 19.9984C14.8989 19.9984 13.9571 19.6069 13.1731 18.8238C12.3891 18.0407 11.9975 17.0989 11.9984 15.9984C11.9984 14.8989 12.39 13.9571 13.1731 13.1731C13.9562 12.3891 14.898 11.9975 15.9984 11.9984C17.0989 11.9984 18.0407 12.39 18.8238 13.1731C19.6069 13.9562 19.9984 14.898 19.9984 15.9984C19.9984 17.0989 19.6069 18.0407 18.8238 18.8238C18.0407 19.6069 17.0989 19.9984 15.9984 19.9984Z" fill="#5061FF"/>
</svg>
