<svg width="24" height="24" viewBox="0 0 24 24" fill="none" xmlns="http://www.w3.org/2000/svg">
<path d="M8.82319 11.998L16.5382 19.713C16.6849 19.861 16.7575 20.0377 16.7562 20.243C16.7542 20.4477 16.6795 20.6237 16.5322 20.771C16.3849 20.9184 16.2085 20.992 16.0032 20.992C15.7979 20.992 15.6215 20.9187 15.4742 20.772L7.83319 13.134C7.67185 12.972 7.55385 12.792 7.47919 12.594C7.40452 12.3947 7.36719 12.1957 7.36719 11.997C7.36719 11.7984 7.40452 11.5997 7.47919 11.401C7.55385 11.2024 7.67185 11.0224 7.83319 10.861L15.4732 3.21804C15.6205 3.07071 15.7979 2.99804 16.0052 3.00004C16.2119 3.00204 16.3892 3.07671 16.5372 3.22404C16.6852 3.37137 16.7585 3.54771 16.7572 3.75304C16.7572 3.95771 16.6839 4.13404 16.5372 4.28204L8.82319 11.998Z" />
</svg>
