<svg width="24" height="24" viewBox="0 0 24 24" fill="none" xmlns="http://www.w3.org/2000/svg">
<path d="M12 15.73C13.0447 15.73 13.928 15.37 14.65 14.65C15.37 13.928 15.73 13.0447 15.73 12C15.73 10.9553 15.37 10.072 14.65 9.35C13.9273 8.63 13.044 8.27 12 8.27C10.956 8.27 10.0727 8.63 9.35 9.35C8.63 10.072 8.27 10.9553 8.27 12C8.27 13.0447 8.63033 13.928 9.351 14.65C10.0723 15.37 10.9553 15.73 12 15.73ZM12 14.73C11.2233 14.73 10.574 14.4693 10.052 13.948C9.53 13.4267 9.269 12.7773 9.269 12C9.269 11.2233 9.53 10.574 10.052 10.052C10.574 9.53 11.2233 9.269 12 9.269C12.7767 9.269 13.426 9.53 13.948 10.052C14.47 10.574 14.731 11.2233 14.731 12C14.731 12.7767 14.47 13.426 13.948 13.948C13.426 14.47 12.7767 14.731 12 14.731V14.73ZM4.615 19C4.155 19 3.771 18.846 3.463 18.538C3.15433 18.2293 3 17.845 3 17.385V6.615C3 6.155 3.15433 5.771 3.463 5.463C3.771 5.15433 4.155 5 4.615 5H7.573L9.423 3H14.577L16.427 5H19.385C19.845 5 20.229 5.15433 20.537 5.463C20.8457 5.771 21 6.155 21 6.615V17.385C21 17.845 20.846 18.229 20.538 18.537C20.2293 18.8457 19.845 19 19.385 19H4.615ZM4.615 18H19.385C19.5643 18 19.7117 17.9423 19.827 17.827C19.9423 17.7117 20 17.5643 20 17.385V6.615C20 6.43567 19.9423 6.28833 19.827 6.173C19.7117 6.05767 19.5643 6 19.385 6H15.988L14.144 4H9.856L8.012 6H4.615C4.43567 6 4.28833 6.05767 4.173 6.173C4.05767 6.28833 4 6.43567 4 6.615V17.385C4 17.5643 4.05767 17.7117 4.173 17.827C4.28833 17.9423 4.43567 18 4.615 18Z"/>
</svg>
