<svg width="24" height="24" viewBox="0 0 24 24" fill="none" xmlns="http://www.w3.org/2000/svg">
<path fill-rule="evenodd" clip-rule="evenodd" d="M13.6094 8.76902C13.6094 8.32273 13.9689 7.96094 14.4124 7.96094H14.4204C14.8639 7.96094 15.2235 8.32273 15.2235 8.76902C15.2235 9.21531 14.8639 9.5771 14.4204 9.5771H14.4124C13.9689 9.5771 13.6094 9.21531 13.6094 8.76902Z" fill="white"/>
<path fill-rule="evenodd" clip-rule="evenodd" d="M4 7.9596C4 5.81934 5.73622 4 7.98484 4H16.0152C18.2638 4 20 5.81934 20 7.9596V16.0404C20 18.1807 18.2638 20 16.0152 20H7.98484C5.73622 20 4 18.1807 4 16.0404V7.9596ZM7.98484 5.45455C6.68543 5.45455 5.54541 6.52953 5.54541 7.9596V16.0404C5.54541 17.4705 6.68543 18.5455 7.98484 18.5455H16.0152C17.3146 18.5455 18.4546 17.4705 18.4546 16.0404V7.9596C18.4546 6.52953 17.3146 5.45455 16.0152 5.45455H7.98484Z" fill="white"/>
<path fill-rule="evenodd" clip-rule="evenodd" d="M7.7012 10.9006C8.29141 10.3291 9.07809 9.92188 9.98943 9.92188C10.9008 9.92188 11.6875 10.3291 12.2777 10.9006L12.2828 10.9056L12.2988 10.9215L16.3139 14.9619C16.6008 15.2506 16.593 15.711 16.2964 15.9903C15.9999 16.2695 15.5269 16.2619 15.24 15.9732L11.2273 11.9353L11.2215 11.9296C10.8449 11.5658 10.4195 11.3764 9.98943 11.3764C9.55933 11.3764 9.134 11.5658 8.75735 11.9296L8.75152 11.9353L5.5419 15.1651C5.25501 15.4538 4.78203 15.4615 4.48547 15.1822C4.18891 14.9029 4.18106 14.4425 4.46795 14.1538L7.68507 10.9165L7.7012 10.9006Z" fill="white"/>
<path fill-rule="evenodd" clip-rule="evenodd" d="M13.3482 12.5094C13.9371 11.9391 14.7154 11.5391 15.6106 11.5391C16.5059 11.5391 17.2841 11.9391 17.8731 12.5094L17.8781 12.5142L17.8941 12.53L19.5001 14.1462C19.7824 14.4302 19.7824 14.8907 19.5001 15.1747C19.2179 15.4588 18.7603 15.4588 18.478 15.1747L16.8744 13.5611L16.8685 13.5552C16.4906 13.1902 16.0568 12.9936 15.6106 12.9936C15.1644 12.9936 14.7307 13.1902 14.3528 13.5552L14.3469 13.5611L13.5463 14.3667C13.264 14.6507 12.8064 14.6507 12.5242 14.3667C12.2419 14.0827 12.2419 13.6222 12.5242 13.3381L13.3321 12.5251L13.3482 12.5094Z" fill="white"/>
</svg>
