<svg width="24" height="24" viewBox="0 0 24 24" fill="none" xmlns="http://www.w3.org/2000/svg">
<path d="M8.954 20.0022H5C4.71933 20.0022 4.48267 19.9055 4.29 19.7122C4.09667 19.5202 4 19.2835 4 19.0022V15.0482C4.56933 14.8815 5.045 14.5665 5.427 14.1032C5.809 13.6399 6 13.1062 6 12.5022C6 11.8982 5.809 11.3645 5.427 10.9012C5.045 10.4379 4.56933 10.1229 4 9.95619V6.00219C4 5.72152 4.09667 5.48485 4.29 5.29219C4.482 5.09885 4.71867 5.00219 5 5.00219H9C9.18 4.43019 9.49533 3.97319 9.946 3.63119C10.3973 3.28852 10.9153 3.11719 11.5 3.11719C12.0847 3.11719 12.6027 3.28852 13.054 3.63119C13.5047 3.97319 13.82 4.43019 14 5.00219H18C18.2807 5.00219 18.5173 5.09885 18.71 5.29219C18.9033 5.48485 19 5.72152 19 6.00219V10.0022C19.572 10.1822 20.029 10.4975 20.371 10.9482C20.7137 11.3995 20.885 11.9175 20.885 12.5022C20.885 13.0869 20.7137 13.6049 20.371 14.0562C20.029 14.5069 19.572 14.8222 19 15.0022V19.0022C19 19.2829 18.9033 19.5195 18.71 19.7122C18.5173 19.9055 18.2807 20.0022 18 20.0022H14.046C13.866 19.3995 13.5427 18.9155 13.076 18.5502C12.6087 18.1849 12.0833 18.0022 11.5 18.0022C10.9167 18.0022 10.3913 18.1849 9.924 18.5502C9.45733 18.9155 9.134 19.3995 8.954 20.0022Z" fill="url(#paint0_linear_775_1726)"/>
<defs>
<linearGradient id="paint0_linear_775_1726" x1="4" y1="11.5597" x2="20.885" y2="11.5597" gradientUnits="userSpaceOnUse">
<stop stop-color="#E73AFF"/>
<stop offset="1" stop-color="#A45CFF"/>
</linearGradient>
</defs>
</svg>
