<svg width="28" height="28" viewBox="0 0 28 28" fill="none" xmlns="http://www.w3.org/2000/svg">
<path d="M5.83594 22.1653V12.0246C5.83594 11.726 5.90283 11.4433 6.0366 11.1765C6.1696 10.9097 6.35394 10.6896 6.5896 10.5161L12.8721 5.75965C13.2003 5.50842 13.576 5.38281 13.9991 5.38281C14.4214 5.38281 14.7994 5.50842 15.1331 5.75965L21.4156 10.5161C21.6513 10.6896 21.8356 10.9097 21.9686 11.1765C22.1024 11.4433 22.1693 11.726 22.1693 12.0246V22.1653C22.1693 22.478 22.053 22.7506 21.8204 22.9831C21.5871 23.2157 21.3145 23.332 21.0026 23.332H17.0534C16.7867 23.332 16.563 23.2418 16.3826 23.0613C16.2022 22.8809 16.1119 22.6569 16.1119 22.3893V16.8255C16.1119 16.5587 16.0213 16.3351 15.8401 16.1546C15.6597 15.9734 15.436 15.8828 15.1693 15.8828H12.8359C12.5692 15.8828 12.3455 15.9734 12.1651 16.1546C11.9839 16.3351 11.8933 16.5587 11.8933 16.8255V22.3905C11.8933 22.6573 11.803 22.8809 11.6226 23.0613C11.4422 23.2418 11.2185 23.332 10.9518 23.332H7.0026C6.68994 23.332 6.41733 23.2157 6.18477 22.9831C5.95222 22.7498 5.83594 22.4772 5.83594 22.1653Z" />
</svg>
