<svg width="65" height="24" viewBox="0 0 65 24" fill="none" xmlns="http://www.w3.org/2000/svg">
<rect x="0.5" y="0.5" width="64" height="23" rx="11.5" fill="white"/>
<rect x="0.5" y="0.5" width="64" height="23" rx="11.5" stroke="black"/>
<path d="M19.8672 11.1348V12.0234H8.79297V11.1348H19.8672ZM9.39453 9.68555C11.541 9.51465 13.585 8.56445 13.7217 7.30664H9.80469V6.43164H18.8828V7.30664H14.9521C15.0615 8.56445 17.1191 9.51465 19.2793 9.68555L18.9238 10.5332C16.9346 10.3281 15.0615 9.55566 14.3301 8.33203C13.6055 9.55566 11.7393 10.3281 9.75 10.5332L9.39453 9.68555ZM10.1328 13.9648V13.1445H18.4453V15.8926H11.2266V17.123H18.8145V17.9707H10.1602V15.0859H17.3926V13.9648H10.1328ZM27.0586 7.2793C27.0586 7.96973 26.9971 8.64648 26.8604 9.30273H29.8887V5.93945H30.9551V18.1074H29.8887V13.4316H26.457V12.543H29.8887V10.1777H26.6416C25.9443 12.4336 24.3379 14.416 21.4668 15.8105L20.9062 14.9355C24.1396 13.3701 25.7529 11.0254 25.9785 8.1543H21.4395V7.2793H27.0586ZM37.1348 8.49609C37.1416 9.95215 38.3584 11.2852 40.1562 11.8184L39.6504 12.6387C38.249 12.2148 37.1621 11.3125 36.6221 10.1572C36.0957 11.4287 34.9678 12.4131 33.5254 12.8848L32.9922 12.0371C34.8037 11.4902 36.0752 10.0957 36.082 8.49609V8.26367H33.334V7.375H36.082V5.89844H37.1621V7.375H39.8828V8.26367H37.1348V8.49609ZM34.2227 17.2324C36.1777 16.918 37.9551 15.8516 38.1328 14.5527H34.7012V13.6777H42.7129V14.5527H39.2676C39.4385 15.8242 41.2295 16.918 43.1777 17.2324L42.7812 18.0664C41.0039 17.7725 39.3906 16.8906 38.6934 15.6738C38.0029 16.8838 36.3965 17.752 34.6328 18.0527L34.2227 17.2324ZM41.4277 13.0215V5.95312H42.4941V8.96094H44.3262V9.86328H42.4941V13.0215H41.4277ZM55.1406 5.95312V18.1074H54.0605V5.95312H55.1406ZM45.2422 14.9492C48.5303 13.3906 50.2119 11.0596 50.4512 8.1543H45.8027V7.2793H51.5449C51.5312 10.7725 49.9043 13.8691 45.8301 15.8242L45.2422 14.9492Z" fill="black"/>
</svg>
