<svg width="65" height="69" viewBox="0 0 65 69" fill="none" xmlns="http://www.w3.org/2000/svg">
<rect x="0.5" y="45.5" width="64" height="23" rx="11.5" fill="white"/>
<rect x="0.5" y="45.5" width="64" height="23" rx="11.5" stroke="black"/>
<path d="M19.8672 56.1348V57.0234H8.79297V56.1348H19.8672ZM9.39453 54.6855C11.541 54.5146 13.585 53.5645 13.7217 52.3066H9.80469V51.4316H18.8828V52.3066H14.9521C15.0615 53.5645 17.1191 54.5146 19.2793 54.6855L18.9238 55.5332C16.9346 55.3281 15.0615 54.5557 14.3301 53.332C13.6055 54.5557 11.7393 55.3281 9.75 55.5332L9.39453 54.6855ZM10.1328 58.9648V58.1445H18.4453V60.8926H11.2266V62.123H18.8145V62.9707H10.1602V60.0859H17.3926V58.9648H10.1328ZM27.0586 52.2793C27.0586 52.9697 26.9971 53.6465 26.8604 54.3027H29.8887V50.9395H30.9551V63.1074H29.8887V58.4316H26.457V57.543H29.8887V55.1777H26.6416C25.9443 57.4336 24.3379 59.416 21.4668 60.8105L20.9062 59.9355C24.1396 58.3701 25.7529 56.0254 25.9785 53.1543H21.4395V52.2793H27.0586ZM37.1348 53.4961C37.1416 54.9521 38.3584 56.2852 40.1562 56.8184L39.6504 57.6387C38.249 57.2148 37.1621 56.3125 36.6221 55.1572C36.0957 56.4287 34.9678 57.4131 33.5254 57.8848L32.9922 57.0371C34.8037 56.4902 36.0752 55.0957 36.082 53.4961V53.2637H33.334V52.375H36.082V50.8984H37.1621V52.375H39.8828V53.2637H37.1348V53.4961ZM34.2227 62.2324C36.1777 61.918 37.9551 60.8516 38.1328 59.5527H34.7012V58.6777H42.7129V59.5527H39.2676C39.4385 60.8242 41.2295 61.918 43.1777 62.2324L42.7812 63.0664C41.0039 62.7725 39.3906 61.8906 38.6934 60.6738C38.0029 61.8838 36.3965 62.752 34.6328 63.0527L34.2227 62.2324ZM41.4277 58.0215V50.9531H42.4941V53.9609H44.3262V54.8633H42.4941V58.0215H41.4277ZM55.1406 50.9531V63.1074H54.0605V50.9531H55.1406ZM45.2422 59.9492C48.5303 58.3906 50.2119 56.0596 50.4512 53.1543H45.8027V52.2793H51.5449C51.5312 55.7725 49.9043 58.8691 45.8301 60.8242L45.2422 59.9492Z" fill="black"/>
<rect x="18" width="30" height="30" rx="15" fill="#5061FF"/>
<path d="M27.1584 23.6528L28.7084 17.0116L23.5547 12.5466L30.3434 11.9591L33.0022 5.69531L35.6609 11.9578L42.4484 12.5453L37.2959 17.0103L38.8459 23.6516L33.0022 20.1266L27.1584 23.6528Z" fill="white"/>
</svg>
